<svg id="Capa_1" data-name="Capa 1" xmlns="http://www.w3.org/2000/svg" viewBox="0 0 65.17 143.85"><defs><style>.cls-1{fill:#ffa300;}.cls-2{fill:#369300;}.cls-3{fill:#306011;}.cls-4{fill:#fff;}</style></defs><path class="cls-1" d="M68.4,151.6l8.3-19.3,2.1-7.2L76.7,96.8s-8.9-17.2-14.6-48h3.1s-5-25.8,22.4-31c0,0,24-2.9,27.4,23.7,0,0,8.9,1.3-8.6,46.4,0,0-.8,18.8-6.8,29.5,0,0,7,26.1,12.5,34.2C112.3,151.6,89.3,158.4,68.4,151.6Z" transform="translate(-62.1 -17.71)"/><path class="cls-2" d="M115.3,157.6c-23,8.9-49.6,0-49.6,0l2.9-6.3c21.9,6.3,43.6,0,43.6,0Z" transform="translate(-62.1 -17.71)"/><path class="cls-2" d="M106.8,140.4c-15.5,8.9-33.6,0-33.6,0l1.9-6.3c14.8,6.3,29.5,0,29.5,0Z" transform="translate(-62.1 -17.71)"/><path class="cls-2" d="M118.3,51.2c-1,2-9.45,11.2-34.39,30,0,0-14.91,10.93-15.41,15.13a13,13,0,0,1-3.3-5.8c-2.2-7.69,45.13-35.16,53.08-39.29Z" transform="translate(-62.1 -17.71)"/><path class="cls-3" d="M77,105.5c-6.9-3.3-8.7-6.5-8.5-9.2a14.39,14.39,0,0,0,8.1,3.9Z" transform="translate(-62.1 -17.71)"/><path class="cls-2" d="M118.3,51.2a8.34,8.34,0,0,0-.3-5.3l-.3-.9a26.74,26.74,0,0,0-.7-4.22C120,39.75,126.41,38.51,118.3,51.2Z" transform="translate(-62.1 -17.71)"/><path class="cls-3" d="M118.5,51.1c-.1,0-.1.1-.2.1,8.11-12.69,1.67-11.45-1.3-10.42-.76.27-1.3.52-1.3.52.4-2.3-2.2-8.6-2.2-8.6h.6c1,0,2.1-.1,3.3-.1C137.9,32.7,120.4,48.8,118.5,51.1Z" transform="translate(-62.1 -17.71)"/><path class="cls-2" d="M118.3,51.2h0s0,0-.06-.08a48.83,48.83,0,0,1-.52-6,4.91,4.91,0,0,0-2-3.8s.54-.25,1.3-.52C120,39.75,126.41,38.51,118.3,51.2Z" transform="translate(-62.1 -17.71)"/><path class="cls-4" d="M118.3,51.2l-.08-.07-.56-.49-.4-7.1L115.7,41.3s.54-.25,1.3-.52C120,39.75,126.41,38.51,118.3,51.2Z" transform="translate(-62.1 -17.71)"/></svg>